
with image 1704456110_7327957


*with 2A power source,3.7v-5v converter



grayscale:Computation time=================================0.009ms
pre-processing: blur:Computation time=====================19.513ms
pre-processing: threshold_img:Computation time=============7.537ms
pre-processing: blur again:Computation time===============12.151ms
pre-processing: blur orig for sampler:Computation time====17.503ms
pre-processing: total:Computation time=========================57.531ms
get possible candidates: find contours:Computation time===18.551ms
get possible candidates: filter:Computation time==========11.877ms
get_possible_candidates total:Computation time=================32.093ms
AC: get approx shape 2:Computation time====================9.026ms
analyse_candidates TOTAL:Computation time=======================9.236ms
analyse lumotag: total:Computation time========================99.368ms


*with 5A official power adapter

grayscale:Computation time=================================0.009ms
pre-processing: blur:Computation time=====================18.186ms
pre-processing: threshold_img:Computation time=============7.543ms
pre-processing: blur again:Computation time===============12.352ms
pre-processing: blur orig for sampler:Computation time====17.694ms
pre-processing: total:Computation time=========================56.706ms
get possible candidates: find contours:Computation time===16.520ms
get possible candidates: filter:Computation time==========12.084ms
get_possible_candidates total:Computation time=================30.064ms
AC: get approx shape 2:Computation time===================11.163ms
analyse_candidates TOTAL:Computation time======================11.426ms
analyse lumotag: total:Computation time========================98.739ms

diagnosis: 2A is fine for raspberry pi 4
only option is to upgrade to raspberry pi 5


RASPBERRY PI 5
5A powwer supply
no camera attached, no display attached


new analysis
grayscale:Computation time=================================0.004ms
pre-processing: blur:Computation time======================1.408ms
pre-processing: threshold_img:Computation time=============1.609ms
pre-processing: blur again:Computation time================0.230ms
pre-processing: blur orig for sampler:Computation time=====1.368ms
pre-processing: total:Computation time==========================4.871ms
get possible candidates: find contours:Computation time====6.156ms
get possible candidates: 2029 contours found
get possible candidates: filter:Computation time===========2.247ms
get possible candidates: 9 contours postfilter
get_possible_candidates total:Computation time==================8.947ms
AC: check barcode bulk:Computation time====================0.446ms
AC: check barcode final:Computation time===================0.434ms
Sample points: 19.0
total samples: 0
img /home/lumotag/DJI_UE4_poc/Source/lumotag/testdata/highviz/1704404023_3112135.jpg
analyse_candidates TOTAL:Computation time=======================8.677ms
analyse lumotag: total:Computation time========================22.796ms

RASPBERRY PI 5
2A power supply
no camera attached, no display attached

new analysis
grayscale:Computation time=================================0.004ms
pre-processing: blur:Computation time======================1.844ms
pre-processing: threshold_img:Computation time=============1.337ms
pre-processing: blur again:Computation time================0.290ms
pre-processing: blur orig for sampler:Computation time=====1.447ms
pre-processing: total:Computation time==========================5.340ms
get possible candidates: find contours:Computation time====6.093ms
get possible candidates: 2029 contours found
get possible candidates: filter:Computation time===========2.681ms
get possible candidates: 9 contours postfilter
get_possible_candidates total:Computation time=================10.712ms
img /home/lumotag/DJI_UE4_poc/Source/lumotag/testdata/highviz/1704404023_3112135.jpg
AC: check barcode bulk:Computation time====================1.526ms
AC: check barcode final:Computation time===================2.400ms
Sample points: 19.0
total samples: 0
analyse_candidates TOTAL:Computation time=======================6.135ms
analyse lumotag: total:Computation time========================23.880ms






raspberry pi 5 with 5a supply and 3 image processors:


new analysis
new analysis
new analysis
grayscale:Computation time=================================0.004ms
grayscale:Computation time=================================0.004ms
grayscale:Computation time=================================0.003ms
pre-processing: blur:Computation time======================1.363ms
pre-processing: blur:Computation time======================1.351ms
pre-processing: blur:Computation time======================1.477ms
pre-processing: threshold_img:Computation time=============2.048ms
pre-processing: threshold_img:Computation time=============2.145ms
pre-processing: blur again:Computation time================0.311ms
pre-processing: blur again:Computation time================0.326ms
pre-processing: threshold_img:Computation time=============2.384ms
pre-processing: blur again:Computation time================0.236ms
pre-processing: blur orig for sampler:Computation time=====1.385ms
pre-processing: total:Computation time==========================5.460ms
pre-processing: blur orig for sampler:Computation time=====1.475ms
pre-processing: total:Computation time==========================5.583ms
get possible candidates: find contours:Computation time====0.602ms
get possible candidates: 29 contours found
get possible candidates: find contours:Computation time====0.509ms
get possible candidates: 29 contours found
get possible candidates: filter:Computation time===========0.051ms
get possible candidates: 0 contours postfilter
get_possible_candidates total:Computation time==================0.778ms
get possible candidates: filter:Computation time===========0.050ms
get possible candidates: 0 contours postfilter
get_possible_candidates total:Computation time==================0.679ms
AC: check barcode bulk:Computation time====================0.103ms
AC: check barcode final:Computation time===================0.001ms
Sample points: 0.0
total samples: 0
AC: check barcode bulk:Computation time====================0.077ms
AC: check barcode final:Computation time===================0.002ms
Sample points: 0.0
total samples: 0
pre-processing: blur orig for sampler:Computation time=====3.090ms
pre-processing: total:Computation time==========================7.765ms
analyse_candidates TOTAL:Computation time=======================1.748ms
analyse lumotag: total:Computation time=========================8.172ms
analyse_candidates TOTAL:Computation time=======================2.985ms
analyse lumotag: total:Computation time=========================9.430ms
get possible candidates: find contours:Computation time====1.529ms
get possible candidates: 29 contours found
get possible candidates: filter:Computation time===========0.053ms
get possible candidates: 0 contours postfilter
get_possible_candidates total:Computation time==================1.702ms
AC: check barcode bulk:Computation time====================0.083ms
AC: check barcode final:Computation time===================0.001ms
Sample points: 0.0
total samples: 0
analyse_candidates TOTAL:Computation time=======================2.859ms
analyse lumotag: total:Computation time========================12.582ms
TOTAL TIME FOR EVERYTHING:Computation time=====================34.052ms
